HIERARCHY
ROOT root
{
	OFFSET	0	13.1	24.9
	CHANNELS 6  Xposition Yposition Zposition Xrotation Yrotation Zrotation
	JOINT spine_1
	{
		OFFSET	0	9.99999	0
		CHANNELS 3  Xrotation Yrotation Zrotation
		JOINT spine_2
		{
			OFFSET	0	112	-10
			CHANNELS 3  Xrotation Yrotation Zrotation
			JOINT spine_3
			{
				OFFSET	0	206.5	19.3
				CHANNELS 3  Xrotation Yrotation Zrotation
				JOINT spine_4
				{
					OFFSET	0	110.4	14.6
					CHANNELS 3  Xrotation Yrotation Zrotation
					JOINT neck_1
					{
						OFFSET	0	71.8	-50.3
						CHANNELS 3  Xrotation Yrotation Zrotation
						JOINT neck_2
						{
							OFFSET	0	86.2	-25.8
							CHANNELS 3  Xrotation Yrotation Zrotation
							JOINT head_ee
							{
								OFFSET	0	179.8	-8.7
								CHANNELS 3  Xrotation Yrotation Zrotation
								End Site
								{
									OFFSET	1	0	0
								}
							}
						}
					}
					JOINT left_clavicle
					{
						OFFSET	-43.2	22.4	-70.8
						CHANNELS 3  Xrotation Yrotation Zrotation
						JOINT left_shoulder
						{
							OFFSET	-93.9	-5.79999	48.7
							CHANNELS 3  Xrotation Yrotation Zrotation
							JOINT left_elbow
							{
								OFFSET	-291.4	-30.8	15.2
								CHANNELS 3  Xrotation Yrotation Zrotation
								JOINT left_lowarm_twist
								{
									OFFSET	-110.7	-3.89999	13.6
									CHANNELS 3  Xrotation Yrotation Zrotation
									JOINT left_hand
									{
										OFFSET	-110.7	-3.89999	13.6
										CHANNELS 3  Xrotation Yrotation Zrotation
										JOINT left_ee
										{
											OFFSET	-80.8	-5.10001	12.1
											CHANNELS 3  Xrotation Yrotation Zrotation
											End Site
											{
												OFFSET	1	0	0
											}
										}
									}
								}
							}
						}
					}
					JOINT right_clavicle
					{
						OFFSET	43.2	22.4	-70.8
						CHANNELS 3  Xrotation Yrotation Zrotation
						JOINT right_shoulder
						{
							OFFSET	93.9	-5.79999	48.7
							CHANNELS 3  Xrotation Yrotation Zrotation
							JOINT right_elbow
							{
								OFFSET	291.4	-30.8	15.2
								CHANNELS 3  Xrotation Yrotation Zrotation
								JOINT right_lowarm_twist
								{
									OFFSET	110.7	-3.89999	13.6
									CHANNELS 3  Xrotation Yrotation Zrotation
									JOINT right_hand
									{
										OFFSET	110.7	-3.89999	13.6
										CHANNELS 3  Xrotation Yrotation Zrotation
										JOINT right_ee
										{
											OFFSET	80.8	-5.10001	12.1
											CHANNELS 3  Xrotation Yrotation Zrotation
											End Site
											{
												OFFSET	1	0	0
											}
										}
									}
								}
							}
						}
					}
				}
			}
		}
	}
	JOINT left_hip
	{
		OFFSET	-82.8	-127.5	0.300001
		CHANNELS 3  Xrotation Yrotation Zrotation
		JOINT left_knee
		{
			OFFSET	-28.2	-396.7	2.2
			CHANNELS 3  Xrotation Yrotation Zrotation
			JOINT left_ankle
			{
				OFFSET	-11.7	-411.3	35.4
				CHANNELS 3  Xrotation Yrotation Zrotation
				JOINT left_toes
				{
					OFFSET	0	-60	-88.6
					CHANNELS 3  Xrotation Yrotation Zrotation
					JOINT left_foot_ee
					{
						OFFSET	-22.5	-16.5	-42.2
						CHANNELS 3  Xrotation Yrotation Zrotation
						End Site
						{
							OFFSET	1	0	0
						}
					}
				}
			}
		}
	}
	JOINT right_hip
	{
		OFFSET	82.8	-127.5	0.300001
		CHANNELS 3  Xrotation Yrotation Zrotation
		JOINT right_knee
		{
			OFFSET	28.2	-396.7	2.2
			CHANNELS 3  Xrotation Yrotation Zrotation
			JOINT right_ankle
			{
				OFFSET	11.7	-411.3	35.4
				CHANNELS 3  Xrotation Yrotation Zrotation
				JOINT right_toes
				{
					OFFSET	0	-60	-88.6
					CHANNELS 3  Xrotation Yrotation Zrotation
					JOINT right_foot_ee
					{
						OFFSET	22.5	-16.5	-42.2
						CHANNELS 3  Xrotation Yrotation Zrotation
						End Site
						{
							OFFSET	1	0	0
						}
					}
				}
			}
		}
	}
}
MOTION
Frames: 11
Frame Time: 0.02
2563.25094235 757.931 -1651.40802028 -173.461592609 83.136588117 -177.930590489 0.775132 -0.169021 -3.7016 0.78275 0.0666992 -3.70485 0.78023 0.795775 -3.61911 0.76202 0.214628 -3.69924 -6.52285 -0.848226 2.5613 -6.50134 -3.4403 2.40755 -0.0 0.0 -0.0 10.3415 -8.8518 20.5897 -30.7024 -29.7919 58.5316 0.286322 -8.07292 0.0202047 67.6687 -2.50211 -7.76793 -0.931962 0.974763 -5.80626 -0.0 0.0 -0.0 7.74794 -7.20028 -14.8711 -17.7091 22.0155 -45.491 0.431794 12.0737 -0.0456644 81.4292 4.00431 8.68827 1.46781 2.15598 -8.97708 0.0 0.0 0.0 34.3996 -38.3231 5.64063 -77.1146 -4.30183 10.1115 21.7272 -20.2985 -3.30858 8.58646 -0.0 -0.0 -0.0 0.0 -0.0 2.1984 -9.76931 -13.9087 -11.4361 -0.299389 -1.72661 29.173 -17.8398 3.87794 -33.5701 0.0 0.0 0.0 0.0 0.0 
2561.79422866 757.931 -1649.44200809 -173.879869007 82.6670010778 -177.50908715 0.775132 -0.169021 -3.7016 0.78275 0.0666992 -3.70485 0.78023 0.795775 -3.61911 0.76202 0.214628 -3.69924 -6.52285 -0.848226 2.5613 -6.50134 -3.4403 2.40755 -0.0 0.0 -0.0 10.3415 -8.8518 20.5897 -30.7024 -29.7919 58.5316 0.286322 -8.07292 0.0202047 67.6687 -2.50211 -7.76793 -0.931962 0.974763 -5.80626 -0.0 0.0 -0.0 7.74794 -7.20028 -14.8711 -17.7091 22.0155 -45.491 0.431794 12.0737 -0.0456644 81.4292 4.00431 8.68827 1.46781 2.15598 -8.97708 0.0 0.0 0.0 34.3996 -38.3231 5.64063 -77.1146 -4.30183 10.1115 21.7272 -20.2985 -3.30858 8.58646 -0.0 -0.0 -0.0 0.0 -0.0 2.1984 -9.76931 -13.9087 -11.4361 -0.299389 -1.72661 29.173 -17.8398 3.87794 -33.5701 0.0 0.0 0.0 0.0 0.0 
2543.31105793 762.095 -1651.17965765 -169.493586924 78.9075529779 178.01775376 0.583403 -0.128729 -3.62885 0.590722 0.10229 -3.62969 0.586255 0.827863 -3.53562 0.568907 0.259473 -3.62186 -5.0874 1.21865 1.35614 -5.08251 1.22335 1.59285 -0.0 0.0 -0.0 10.4153 -9.97682 20.7449 -32.605 -29.2972 57.9442 0.272234 -7.68057 0.0182741 70.2205 -2.76328 -7.96536 -0.589962 1.47841 -3.30298 -0.0 0.0 -0.0 7.7394 -5.58121 -14.9233 -17.1023 22.3054 -43.0926 0.405828 11.3672 -0.0403897 81.8714 4.05599 8.71172 2.39679 5.24441 -14.0762 0.0 0.0 0.0 49.5283 -35.1476 13.1803 -68.043 -3.12814 9.34843 4.38596 -13.1779 -0.681467 5.18819 -0.0 -0.0 -0.0 0.0 -0.0 -0.790845 -9.53622 -15.1756 -4.15713 -0.148699 -0.620524 25.5576 -23.7395 3.55205 -34.8628 0.0 0.0 0.0 0.0 0.0 
2540.53972647 762.095 -1647.0863465 -170.272699467 78.0161609318 178.812910956 0.583403 -0.128729 -3.62885 0.590722 0.10229 -3.62969 0.586255 0.827863 -3.53562 0.568907 0.259473 -3.62186 -5.0874 1.21865 1.35614 -5.08251 1.22335 1.59285 -0.0 0.0 -0.0 10.4153 -9.97682 20.7449 -32.605 -29.2972 57.9442 0.272234 -7.68057 0.0182741 70.2205 -2.76328 -7.96536 -0.589962 1.47841 -3.30298 -0.0 0.0 -0.0 7.7394 -5.58121 -14.9233 -17.1023 22.3054 -43.0926 0.405828 11.3672 -0.0403897 81.8714 4.05599 8.71172 2.39679 5.24441 -14.0762 0.0 0.0 0.0 49.5283 -35.1476 13.1803 -68.043 -3.12814 9.34843 4.38596 -13.1779 -0.681467 5.18819 -0.0 -0.0 -0.0 0.0 -0.0 -0.790845 -9.53622 -15.1756 -4.15713 -0.148699 -0.620524 25.5576 -23.7395 3.55205 -34.8628 0.0 0.0 0.0 0.0 0.0 
2538.6172098 762.095 -1644.16252379 -170.757141345 77.3839629881 179.308726367 0.583403 -0.128729 -3.62885 0.590722 0.10229 -3.62969 0.586255 0.827863 -3.53562 0.568907 0.259473 -3.62186 -5.0874 1.21865 1.35614 -5.08251 1.22335 1.59285 -0.0 0.0 -0.0 10.4153 -9.97682 20.7449 -32.605 -29.2972 57.9442 0.272234 -7.68057 0.0182741 70.2205 -2.76328 -7.96536 -0.589962 1.47841 -3.30298 -0.0 0.0 -0.0 7.7394 -5.58121 -14.9233 -17.1023 22.3054 -43.0926 0.405828 11.3672 -0.0403897 81.8714 4.05599 8.71172 2.39679 5.24441 -14.0762 0.0 0.0 0.0 49.5283 -35.1476 13.1803 -68.043 -3.12814 9.34843 4.38596 -13.1779 -0.681467 5.18819 -0.0 -0.0 -0.0 0.0 -0.0 -0.790845 -9.53622 -15.1756 -4.15713 -0.148699 -0.620524 25.5576 -23.7395 3.55205 -34.8628 0.0 0.0 0.0 0.0 0.0 
2538.55540672 762.095 -1644.06733888 -170.772034633 77.3634448904 179.323988753 0.583403 -0.128729 -3.62885 0.590722 0.10229 -3.62969 0.586255 0.827863 -3.53562 0.568907 0.259473 -3.62186 -5.0874 1.21865 1.35614 -5.08251 1.22335 1.59285 -0.0 0.0 -0.0 10.4153 -9.97682 20.7449 -32.605 -29.2972 57.9442 0.272234 -7.68057 0.0182741 70.2205 -2.76328 -7.96536 -0.589962 1.47841 -3.30298 -0.0 0.0 -0.0 7.7394 -5.58121 -14.9233 -17.1023 22.3054 -43.0926 0.405828 11.3672 -0.0403897 81.8714 4.05599 8.71172 2.39679 5.24441 -14.0762 0.0 0.0 0.0 49.5283 -35.1476 13.1803 -68.043 -3.12814 9.34843 4.38596 -13.1779 -0.681467 5.18819 -0.0 -0.0 -0.0 0.0 -0.0 -0.790845 -9.53622 -15.1756 -4.15713 -0.148699 -0.620524 25.5576 -23.7395 3.55205 -34.8628 0.0 0.0 0.0 0.0 0.0 
2538.27307685 762.095 -1643.63154921 -170.839559055 77.2695565111 179.393202108 0.583403 -0.128729 -3.62885 0.590722 0.10229 -3.62969 0.586255 0.827863 -3.53562 0.568907 0.259473 -3.62186 -5.0874 1.21865 1.35614 -5.08251 1.22335 1.59285 -0.0 0.0 -0.0 10.4153 -9.97682 20.7449 -32.605 -29.2972 57.9442 0.272234 -7.68057 0.0182741 70.2205 -2.76328 -7.96536 -0.589962 1.47841 -3.30298 -0.0 0.0 -0.0 7.7394 -5.58121 -14.9233 -17.1023 22.3054 -43.0926 0.405828 11.3672 -0.0403897 81.8714 4.05599 8.71172 2.39679 5.24441 -14.0762 0.0 0.0 0.0 49.5283 -35.1476 13.1803 -68.043 -3.12814 9.34843 4.38596 -13.1779 -0.681467 5.18819 -0.0 -0.0 -0.0 0.0 -0.0 -0.790845 -9.53622 -15.1756 -4.15713 -0.148699 -0.620524 25.5576 -23.7395 3.55205 -34.8628 0.0 0.0 0.0 0.0 0.0 
2536.07381012 762.095 -1640.18141752 -171.338398263 76.5291625641 179.905360457 0.583403 -0.128729 -3.62885 0.590722 0.10229 -3.62969 0.586255 0.827863 -3.53562 0.568907 0.259473 -3.62186 -5.0874 1.21865 1.35614 -5.08251 1.22335 1.59285 -0.0 0.0 -0.0 10.4153 -9.97682 20.7449 -32.605 -29.2972 57.9442 0.272234 -7.68057 0.0182741 70.2205 -2.76328 -7.96536 -0.589962 1.47841 -3.30298 -0.0 0.0 -0.0 7.7394 -5.58121 -14.9233 -17.1023 22.3054 -43.0926 0.405828 11.3672 -0.0403897 81.8714 4.05599 8.71172 2.39679 5.24441 -14.0762 0.0 0.0 0.0 49.5283 -35.1476 13.1803 -68.043 -3.12814 9.34843 4.38596 -13.1779 -0.681467 5.18819 -0.0 -0.0 -0.0 0.0 -0.0 -0.790845 -9.53622 -15.1756 -4.15713 -0.148699 -0.620524 25.5576 -23.7395 3.55205 -34.8628 0.0 0.0 0.0 0.0 0.0 
2533.70578064 762.095 -1636.35145781 -171.827049057 75.7132448635 -179.591306673 0.583403 -0.128729 -3.62885 0.590722 0.10229 -3.62969 0.586255 0.827863 -3.53562 0.568907 0.259473 -3.62186 -5.0874 1.21865 1.35614 -5.08251 1.22335 1.59285 -0.0 0.0 -0.0 10.4153 -9.97682 20.7449 -32.605 -29.2972 57.9442 0.272234 -7.68057 0.0182741 70.2205 -2.76328 -7.96536 -0.589962 1.47841 -3.30298 -0.0 0.0 -0.0 7.7394 -5.58121 -14.9233 -17.1023 22.3054 -43.0926 0.405828 11.3672 -0.0403897 81.8714 4.05599 8.71172 2.39679 5.24441 -14.0762 0.0 0.0 0.0 49.5283 -35.1476 13.1803 -68.043 -3.12814 9.34843 4.38596 -13.1779 -0.681467 5.18819 -0.0 -0.0 -0.0 0.0 -0.0 -0.790845 -9.53622 -15.1756 -4.15713 -0.148699 -0.620524 25.5576 -23.7395 3.55205 -34.8628 0.0 0.0 0.0 0.0 0.0 
2532.53547679 762.095 -1634.41205657 -172.052129062 75.3024401031 -179.358831207 0.583403 -0.128729 -3.62885 0.590722 0.10229 -3.62969 0.586255 0.827863 -3.53562 0.568907 0.259473 -3.62186 -5.0874 1.21865 1.35614 -5.08251 1.22335 1.59285 -0.0 0.0 -0.0 10.4153 -9.97682 20.7449 -32.605 -29.2972 57.9442 0.272234 -7.68057 0.0182741 70.2205 -2.76328 -7.96536 -0.589962 1.47841 -3.30298 -0.0 0.0 -0.0 7.7394 -5.58121 -14.9233 -17.1023 22.3054 -43.0926 0.405828 11.3672 -0.0403897 81.8714 4.05599 8.71172 2.39679 5.24441 -14.0762 0.0 0.0 0.0 49.5283 -35.1476 13.1803 -68.043 -3.12814 9.34843 4.38596 -13.1779 -0.681467 5.18819 -0.0 -0.0 -0.0 0.0 -0.0 -0.790845 -9.53622 -15.1756 -4.15713 -0.148699 -0.620524 25.5576 -23.7395 3.55205 -34.8628 0.0 0.0 0.0 0.0 0.0 
2530.60770096 762.095 -1631.14632133 -172.401735728 74.6141923702 -178.996827698 0.583403 -0.128729 -3.62885 0.590722 0.10229 -3.62969 0.586255 0.827863 -3.53562 0.568907 0.259473 -3.62186 -5.0874 1.21865 1.35614 -5.08251 1.22335 1.59285 -0.0 0.0 -0.0 10.4153 -9.97682 20.7449 -32.605 -29.2972 57.9442 0.272234 -7.68057 0.0182741 70.2205 -2.76328 -7.96536 -0.589962 1.47841 -3.30298 -0.0 0.0 -0.0 7.7394 -5.58121 -14.9233 -17.1023 22.3054 -43.0926 0.405828 11.3672 -0.0403897 81.8714 4.05599 8.71172 2.39679 5.24441 -14.0762 0.0 0.0 0.0 49.5283 -35.1476 13.1803 -68.043 -3.12814 9.34843 4.38596 -13.1779 -0.681467 5.18819 -0.0 -0.0 -0.0 0.0 -0.0 -0.790845 -9.53622 -15.1756 -4.15713 -0.148699 -0.620524 25.5576 -23.7395 3.55205 -34.8628 0.0 0.0 0.0 0.0 0.0 
